# AST/ASF file generated using VICON BodyLanguage
# -----------------------------------------------
:version 1.10
:name VICON
:units
  mass 1.0
  length 0.45
  angle deg
:documentation
   .ast/.asf automatically generated from VICON data using
   VICON BodyBuilder and BodyLanguage model FoxedUp or BRILLIANT.MOD
:root
   order TX TY TZ RX RY RZ
   axis XYZ
   position 0 0 0  
   orientation 0 0 0 
:bonedata
  begin
     id 1 
     name lhipjoint
     direction 0.653368 -0.678499 0.335782 
     length 2.51848 
     axis 0 0 0  XYZ
  end
  begin
     id 2 
     name lfemur
     direction 0.34202 -0.939693 0  
     length 6.57749  
     axis 0 0 20  XYZ
    dof rx ry rz
    limits (-160.0 20.0)
           (-70.0 70.0)
           (-60.0 70.0)
  end
  begin
     id 3 
     name ltibia
     direction 0.34202 -0.939693 0   
     length 7.94618   
     axis 0 0 20   XYZ
    dof rx
    limits (-10.0 170.0)
  end
  begin
     id 4 
     name lfoot
     direction 0.0811271 -0.222895 0.971461   
     length 2.31339   
     axis -90 7.62852e-016 20   XYZ
    dof rx rz
    limits (-45.0 90.0)
           (-70.0 20.0)
  end
  begin
     id 5 
     name ltoes
     direction 1.53568e-011 -4.21885e-011 1   
     length 1.15935   
     axis -90 7.62852e-016 20   XYZ
    dof rx
    limits (-90.0 20.0)
  end
  begin
     id 6 
     name rhipjoint
     direction -0.640058 -0.688614 0.340788   
     length 2.48149  
     axis 0 0 0  XYZ 
  end
  begin
     id 7 
     name rfemur
     direction -0.34202 -0.939693 0   
     length 6.57875   
     axis 0 0 -20   XYZ
    dof rx ry rz
    limits (-160.0 20.0)
           (-70.0 70.0)
           (-70.0 60.0)
  end
  begin
     id 8 
     name rtibia
     direction -0.34202 -0.939693 0   
     length 7.977   
     axis 0 0 -20   XYZ
    dof rx
    limits (-10.0 170.0)
 end
 begin
     id 9 
     name rfoot
     direction -0.0979793 -0.269196 0.958089   
     length 2.19857  
     axis -90 -7.62852e-016 -20   XYZ
    dof rx rz
    limits (-45.0 90.0)
           (-20.0 70.0)
  end
  begin
     id 10 
     name rtoes
     direction -1.53556e-011 -4.21868e-011 1   
     length 1.09838   
     axis -90 -7.62852e-016 -20   XYZ
    dof rx
    limits (-90.0 20.0)
  end
  begin
     id 11 
     name lowerback
     direction 0.0149039 0.998517 -0.0523597   
     length 2.10809   
     axis 0 0 0   XYZ
    dof rx ry rz
    limits (-20.0 45.0)
           (-30.0 30.0)
           (-30.0 30.0)
  end
  begin
     id 12 
     name upperback
     direction -0.00882659 0.999418 -0.0329624   
     length 2.1102   
     axis 0 0 0   XYZ
    dof rx ry rz
    limits (-20.0 45.0)
           (-30.0 30.0)
           (-30.0 30.0)
  end
  begin
     id 13 
     name thorax
     direction -0.0165585 0.999826 -0.0085833   
     length 2.11039   
     axis 0 0 0   XYZ
    dof rx ry rz
    limits (-20.0 45.0)
           (-30.0 30.0)
           (-30.0 30.0)
  end
  begin
     id 14 
     name lowerneck
     direction -0.0130877 0.999911 0.00260353   
     length 1.73253   
     axis 0 0 0   XYZ
    dof rx ry rz
    limits (-20.0 45.0)
           (-30.0 30.0)
           (-30.0 30.0)
  end
  begin
     id 15 
     name upperneck
     direction -0.0348454 0.928205 -0.370435   
     length 1.66692   
     axis 0 0 0   XYZ
    dof rx ry rz
    limits (-20.0 45.0)
           (-30.0 30.0)
           (-30.0 30.0)
  end
  begin
     id 16
     name head
     direction -0.00807754 0.992494 -0.122026  
     length 1.72765  
     axis 0 0 0   XYZ
    dof rx ry rz
    limits (-20.0 45.0)
           (-30.0 30.0)
           (-30.0 30.0)
  end
  begin
     id 17 
     name lclavicle
     direction 0.987582 0.144023 0.0627671  
     length 3.49235  
     axis 0 0 0   XYZ
    dof ry rz
    limits (-20.0 10.0)
           (0.0 20.0)
  end
  begin
     id 18 
     name lhumerus
     direction 1 -4.48958e-011 -1.45183e-018   
     length 5.41917   
     axis 180 -30 -90   XYZ
    dof rx ry rz
    limits (-60.0 90.0)
           (-90.0 90.0)
           (-90.0 90.0)
  end
  begin
     id 19
     name lradius
     direction 1 -4.48999e-011 5.75106e-027   
     length 2.44373   
     axis 180 -30 -90   XYZ
    dof rx
    limits (-10.0 170.0)
  end
  begin
     id 20
     name lwrist
     direction 1 -4.48987e-011 1.53461e-026   
     length 1.22186   
     axis -1.09697e-014 90 90   XYZ
    dof ry
    limits (-180.0 0.0)
 end
  begin
     id 21 
     name lhand
     direction 1 -4.48881e-011 3.06923e-026   
     length 0.727502   
     axis -1.95843e-014 90 90   XYZ
    dof rx rz
    limits (-90.0 90.0)
           (-45.0 45.0)
  end
  begin
     id 22 
     name lfingers
     direction 1 -4.48907e-011 6.13845e-026   
     length 0.586531   
     axis -3.91686e-014 90 90   XYZ
    dof rx
    limits (0.0 90.0)
  end
  begin
     id 23
     name lthumb
     direction 0.707107 -6.3487e-011 0.707107   
     length 0.842145   
     axis -90 45 2.85299e-015   XYZ
    dof rx rz
    limits (-45.0 45.0)
           (-45.0 45.0)
  end
  begin
     id 24 
     name rclavicle
     direction -0.980998 0.169556 0.0943023   
     length 3.29272  
     axis 0 0 0   XYZ 
    dof ry rz
    limits (-10.0 20.0)
           (-20.0 0.0)
  end
  begin
     id 25 
     name rhumerus
     direction -1 -1.83355e-005 2.45537e-005  
     length 5.58976   
     axis 180 30 90   XYZ
    dof rx ry rz
    limits (-90.0 60.0)
           (-90.0 90.0)
           (-90.0 90.0)
  end
  begin
     id 26 
     name rradius
     direction -1 -4.48967e-011 5.97228e-027   
     length 2.4806   
     axis 180 30 90   XYZ
    dof rx
    limits (-10.0 170.0)
  end
  begin
     id 27 
     name rwrist
     direction -1 -4.48963e-011 1.53461e-026   
     length 1.2403   
     axis -1.09697e-014 -90 -90   XYZ
    dof ry
    limits (-180.0 0.0)
  end
  begin
     id 28
     name rhand
     direction -1 -4.48881e-011 3.06923e-026   
     length 0.816009   
     axis -1.95843e-014 -90 -90   XYZ
    dof rx rz
    limits (-90.0 90.0)
           (-45.0 45.0)
  end
  begin
     id 29
     name rfingers
     direction -1 -4.49018e-011 6.13845e-026   
     length 0.657887   
     axis -3.91686e-014 -90 -90   XYZ
    dof rx
    limits (0.0 90.0)
  end
  begin
     id 30
     name rthumb
     direction -0.707107 -6.34872e-011 0.707107   
     length 0.944599   
     axis -90 -45 -2.85299e-015   XYZ
    dof rx rz
    limits (-45.0 45.0)
           (-45.0 45.0)
  end
:hierarchy
  begin
    root lhipjoint rhipjoint lowerback
    lhipjoint lfemur
    lfemur ltibia
    ltibia lfoot
    lfoot ltoes
    rhipjoint rfemur
    rfemur rtibia
    rtibia rfoot
    rfoot rtoes
    lowerback upperback
    upperback thorax
    thorax lowerneck lclavicle rclavicle
    lowerneck upperneck
    upperneck head
    lclavicle lhumerus
    lhumerus lradius
    lradius lwrist
    lwrist lhand lthumb
    lhand lfingers
    rclavicle rhumerus
    rhumerus rradius
    rradius rwrist
    rwrist rhand rthumb
    rhand rfingers
  end

#!OML:ASF F:\VICON\USERDATA\INSTALL\rory3\rory3.ASF
:FULLY-SPECIFIED
:DEGREES
34
root -1.06365 16.3227 22.4918 -158.315 -10.9129 -179.213
lowerback -10.9941 -3.53483 3.89592
upperback -11.0689 -6.63822 1.92819
thorax -5.72237 -4.24341 -0.441054
lowerneck -19.3742 -0.107791 -0.889219
upperneck 34.6718 3.20158 -1.29658
head 15.4627 1.93405 0.452366
rclavicle 8.12532e-015 -1.33186e-014
rhumerus -63.479 -74.1474 18.6901
rradius 10.8923
rwrist 98.4832
rhand -8.0713 9.11015
rfingers 7.12502
rthumb 17.8402 -20.0915
lclavicle 8.12532e-015 -1.33186e-014
lhumerus 20.7098 -23.1777 65.8439
lradius 17.4279
lwrist -59.2515
lhand 2.3773 19.2525
lfingers 7.12502
lthumb 27.8654 47.2058
rfemur -60.0444 -1.37947 25.3025
rtibia 54.3842
rfoot -11.7142 -21.8553
rtoes 17.7979
lfemur -4.86513 -11.1539 -19.3739
ltibia 34.475
lfoot -19.138 22.5936
ltoes -7.87946
35
root -1.03813 16.4668 22.3527 -157.712 -9.98123 -179.525
lowerback -11.4833 -3.09927 2.94757
upperback -11.1681 -6.06083 1.86543
thorax -5.4441 -3.91616 -0.00184445
lowerneck -18.6961 -0.169855 -1.0057
upperneck 34.6552 3.12184 -1.00961
head 15.2868 1.96604 0.577357
rclavicle 3.68249e-014 3.16068e-014
rhumerus -54.6468 -72.4667 10.5882
rradius 10.95
rwrist 94.3493
rhand -7.49212 9.01356
rfingers 7.12502
rthumb 18.3975 -20.1365
lclavicle 3.68249e-014 3.16068e-014
lhumerus 22.5637 -24.6318 64.2244
lradius 17.6769
lwrist -57.2956
lhand 2.61814 19.774
lfingers 7.12502
lthumb 28.0956 47.6897
rfemur -59.6023 0.144937 24.2709
rtibia 53.3069
rfoot -10.1742 -22.3732
rtoes 17.4731
lfemur -6.17687 -9.65559 -20.1181
ltibia 34.6115
lfoot -20.5517 23.5765
ltoes -3.10401
36
root -1.03598 16.6312 22.2119 -157.602 -10.0782 -179.326
lowerback -11.7448 -2.85294 3.10491
upperback -11.358 -5.81136 1.89988
thorax -5.51445 -3.82987 -0.0438453
lowerneck -17.5298 -0.389914 -1.06452
upperneck 34.7643 2.92997 -0.899252
head 15.0643 1.9675 0.600507
rclavicle -2.58172e-014 -3.18055e-015
rhumerus -51.9698 -71.4193 8.83005
rradius 10.9916
rwrist 92.6327
rhand -7.463 9.69031
rfingers 7.12502
rthumb 18.4255 -19.4571
lclavicle -2.58172e-014 -3.18055e-015
lhumerus 23.2412 -23.8058 64.3816
lradius 17.5664
lwrist -57.6042
lhand 2.64965 19.7041
lfingers 7.12502
lthumb 28.1257 47.6149
rfemur -58.5115 1.04952 23.802
rtibia 52.1305
rfoot -9.33405 -22.7542
rtoes 19.393
lfemur -7.21182 -8.80892 -20.0718
ltibia 34.6042
lfoot -22.0608 24.6725
ltoes -0.203005
37
root -1.02831 16.807 22.0697 -157.806 -10.5782 -179.376
lowerback -11.731 -2.90775 3.03928
upperback -11.2007 -5.82897 1.91788
thorax -5.34159 -3.80871 -0.00395669
lowerneck -18.0901 -0.789306 -0.801702
upperneck 35.5118 2.43071 -1.04639
head 15.5598 1.79441 0.429968
rclavicle -2.75565e-014 9.14409e-015
rhumerus -45.6409 -69.332 2.93334
rradius 11.0373
rwrist 88.7778
rhand -7.33465 9.75221
rfingers 7.12502
rthumb 18.5489 -19.3834
lclavicle -2.75565e-014 9.14409e-015
lhumerus 24.3664 -22.7178 64.3875
lradius 17.3375
lwrist -57.6926
lhand 2.33169 19.6416
lfingers 7.12502
lthumb 27.8218 47.6019
rfemur -57.0345 1.87781 22.9937
rtibia 50.9876
rfoot -9.6313 -23.121
rtoes 22.4945
lfemur -7.9771 -8.32794 -20.1188
ltibia 34.4719
lfoot -24.1425 24.9565
ltoes 1.13507
38
root -1.01609 16.9817 21.9426 -158.147 -11.1095 -179.666
lowerback -11.4646 -3.13009 2.6563
upperback -10.8896 -5.98579 1.92059
thorax -5.11184 -3.81212 0.193557
lowerneck -17.8961 -0.98367 -0.678464
upperneck 35.7946 2.21992 -1.097
head 15.6532 1.74787 0.35824
rclavicle -6.69656e-014 -5.56597e-015
rhumerus -41.658 -68.1969 -0.719393
rradius 11.1254
rwrist 85.8488
rhand -6.88269 9.47524
rfingers 7.12502
rthumb 18.9836 -19.6184
lclavicle -6.69656e-014 -5.56597e-015
lhumerus 25.7222 -22.3096 63.809
lradius 17.2089
lwrist -57.0415
lhand 2.22829 20.1927
lfingers 7.12502
lthumb 27.7229 48.1689
rfemur -55.4991 2.38517 22.2808
rtibia 49.9705
rfoot -8.5516 -23.7313
rtoes 22.4124
lfemur -8.59348 -7.76071 -20.372
ltibia 34.0817
lfoot -25.7458 24.8429
ltoes 3.0742
39
root -1.00235 17.1646 21.8024 -158.984 -12.3997 -180.363
lowerback -10.8778 -3.69853 1.99594
upperback -10.3737 -6.50841 1.82859
thorax -4.82138 -3.95315 0.434413
lowerneck -17.7832 -1.16659 -0.654105
upperneck 36.1006 1.97941 -0.93813
head 15.7734 1.70362 0.38874
rclavicle -1.21756e-015 -3.18055e-015
rhumerus -40.1407 -67.8587 -1.85167
rradius 11.1865
rwrist 84.3123
rhand -6.58856 9.40462
rfingers 7.12502
rthumb 19.2665 -19.661
lclavicle -1.21756e-015 -3.18055e-015
lhumerus 27.0597 -22.2174 63.1088
lradius 17.1306
lwrist -56.6726
lhand 2.37827 20.9789
lfingers 7.12502
lthumb 27.8663 48.932
rfemur -53.2408 2.22446 21.4849
rtibia 49.1321
rfoot -7.2178 -25.1555
rtoes 22.3143
lfemur -8.55558 -7.46243 -20.7289
ltibia 33.4802
lfoot -25.0883 25.6439
ltoes 5.63974
40
root -0.977826 17.3377 21.6768 -159.218 -12.6333 -181.112
lowerback -10.53 -3.85598 0.970392
upperback -10.1798 -6.57391 1.64344
thorax -4.71345 -3.89766 0.813009
lowerneck -17.6832 -1.35733 -0.469412
upperneck 36.6569 1.76966 -0.835341
head 16.0259 1.71074 0.383345
rclavicle -2.69602e-014 -2.38542e-015
rhumerus -37.5522 -66.0947 -4.29435
rradius 11.2679
rwrist 81.7166
rhand -6.33256 8.97209
rfingers 7.12502
rthumb 19.5126 -20.0688
lclavicle -2.69602e-014 -2.38542e-015
lhumerus 27.8904 -21.8786 62.9099
lradius 17.0923
lwrist -56.8012
lhand 2.45784 21.5555
lfingers 7.12502
lthumb 27.9424 49.4962
rfemur -52.085 3.0353 20.2581
rtibia 48.4592
rfoot -5.32113 -26.9407
rtoes 22.4698
lfemur -9.17635 -6.70343 -21.553
ltibia 32.8886
lfoot -24.9115 24.9964
ltoes 7.26093
41
root -0.97413 17.5113 21.5697 -159.397 -12.8619 -181.471
lowerback -10.2507 -3.86248 0.594068
upperback -10.0113 -6.50046 1.51821
thorax -4.65889 -3.81742 0.905822
lowerneck -17.3744 -1.58805 -0.282547
upperneck 37.1517 1.57636 -0.884475
head 16.2027 1.71379 0.314281
rclavicle 6.20208e-014 -7.55382e-015
rhumerus -34.3471 -63.5115 -7.45697
rradius 11.374
rwrist 78.025
rhand -6.02365 8.32638
rfingers 7.12502
rthumb 19.8096 -20.6841
lclavicle 6.20208e-014 -7.55382e-015
lhumerus 28.8364 -22.2121 62.3216
lradius 17.0699
lwrist -55.9115
lhand 1.91664 21.7045
lfingers 7.12502
lthumb 27.4249 49.7283
rfemur -51.2848 3.39009 19.5606
rtibia 47.8661
rfoot -2.70556 -28.1246
rtoes 21.3972
lfemur -9.9883 -6.00798 -22.1246
ltibia 32.3785
lfoot -24.4019 24.7427
ltoes 7.61783
42
root -0.961507 17.6764 21.4598 -159.48 -12.9479 -182.033
lowerback -10.2049 -3.92295 -0.144825
upperback -9.69034 -6.45741 1.38576
thorax -4.27757 -3.72646 1.15159
lowerneck -17.128 -1.77742 -0.187652
upperneck 37.5183 1.40349 -0.84989
head 16.3294 1.70968 0.29648
rclavicle -2.05494e-014 -1.47101e-014
rhumerus -33.3438 -63.0137 -8.21499
rradius 11.3954
rwrist 76.5645
rhand -5.7707 8.15915
rfingers 7.12502
rthumb 20.0528 -20.8261
lclavicle -2.05494e-014 -1.47101e-014
lhumerus 29.9831 -22.5711 61.4388
lradius 16.9591
lwrist -54.9616
lhand 1.02449 21.4423
lfingers 7.12502
lthumb 26.5713 49.5983
rfemur -50.7074 4.05932 18.4659
rtibia 47.4052
rfoot -2.24316 -29.6519
rtoes 24.8172
lfemur -10.9673 -4.9662 -22.8865
ltibia 32.0287
lfoot -21.6997 26.3678
ltoes 9.18619
43
root -0.948005 17.83 21.3592 -159.557 -13.003 -182.402
lowerback -9.91483 -3.89922 -0.6433
upperback -9.5357 -6.34873 1.24674
thorax -4.23755 -3.62798 1.30262
lowerneck -16.8065 -2.01613 -0.0343775
upperneck 37.9814 1.1837 -0.830724
head 16.489 1.70848 0.257989
rclavicle 5.79582e-014 1.13307e-014
rhumerus -32.6838 -62.2554 -8.69149
rradius 11.4197
rwrist 75.2366
rhand -5.44218 7.9175
rfingers 7.12502
rthumb 20.3685 -21.0343
lclavicle 5.79582e-014 1.13307e-014
lhumerus 30.8735 -23.5911 60.1494
lradius 17.276
lwrist -53.6944
lhand 1.03839 21.4409
lfingers 7.12502
lthumb 26.5846 49.5949
rfemur -50.3571 4.65868 17.6402
rtibia 47.104
rfoot -3.69035 -31.3211
rtoes 32.2567
lfemur -12.0534 -3.86519 -23.4666
ltibia 31.758
lfoot -17.9039 29.1904
ltoes 10.2878
